<svg width="1920" height="322" viewBox="0 0 1920 322" fill="none" xmlns="http://www.w3.org/2000/svg">
<g opacity="0.38">
<path d="M735 171.5C417.4 254.3 47 50.3333 3 2V471.38H2037V206.88C1997 175.047 1719 84.5 1458.5 84.5C1198 84.5 1086.5 79.8621 735 171.5Z" fill="#C874B2" stroke="black"/>
<path d="M722.5 157.373C499 99.3727 182 39.9147 0 83.3727V456.448H2185.77C2243.91 354.438 2501.27 107.213 2235.5 34.4059C2119.4 2.60091 1971.19 44.7247 1557.5 157.373C1322 221.5 946 215.373 722.5 157.373Z" fill="#7B337D"/>
<path d="M832.967 264.799C483.418 131.882 66.1923 237.108 -88 306.336V493H1924V264.799C1705.97 320.181 1182.52 397.716 832.967 264.799Z" fill="#430D4B"/>
</g>
</svg>
